<?xml version="1.0" encoding="UTF-8"?>
<svg id="Layer_2" data-name="Layer 2" xmlns="http://www.w3.org/2000/svg" viewBox="0 0 936 640">
  <defs>
    <style>
      .cls-1 {
        fill: #d3af64;
      }
    </style>
  </defs>
  <path class="cls-1" d="M29.5,399.5v-47H118.5v47c26.33-2,52.67-4,79-6l15-8v-23l27-2V182.5l9-38,5,27,6-12,5,9,11-35,8,33,11-50,32,75,13-30,13,34,186-40v-52l16-48,8,42,12-24,9,12,25-66,23.09,63.06,2.91,7.94,6-12,8,34,5,22,10-60,8,45v249s37,18,37,21v66l-212,7-3-32,19-20s-6-35-3-35-205,8-205,8v56l-1,10-116,2-2-26-3-10-1-12-58,5v33l-81-1-13,2"/>
</svg>